<svg xmlns="http://www.w3.org/2000/svg" xmlns:xlink="http://www.w3.org/1999/xlink" version="1.1" width="576pt" height="432pt" viewBox="0 0 576 432">
<defs>
<clipPath id="clip_0">
<path transform="matrix(1,0,0,-1,0,432)" d="M41.09 72.98H570.52V426.52003H41.09Z"/>
</clipPath>
</defs>
<path transform="matrix(1,0,0,-1,0,432)" d="M0 0H576V432H0Z" fill="#ffffff"/>
<path transform="matrix(1,0,0,-1,0,432)" d="M0 0H576V432H0Z" fill="#ffffff"/>
<g clip-path="url(#clip_0)">
<path transform="matrix(1,0,0,-1,0,432)" stroke-width="1.07" stroke-linecap="butt" stroke-linejoin="round" fill="none" stroke="#d8d8d8" d="M41.09 126.07H570.52"/>
<path transform="matrix(1,0,0,-1,0,432)" stroke-width="1.07" stroke-linecap="butt" stroke-linejoin="round" fill="none" stroke="#d8d8d8" d="M41.09 210.21H570.52"/>
<path transform="matrix(1,0,0,-1,0,432)" stroke-width="1.07" stroke-linecap="butt" stroke-linejoin="round" fill="none" stroke="#d8d8d8" d="M41.09 294.34H570.52"/>
<path transform="matrix(1,0,0,-1,0,432)" stroke-width="1.07" stroke-linecap="butt" stroke-linejoin="round" fill="none" stroke="#d8d8d8" d="M41.09 378.48H570.52"/>
<path transform="matrix(1,0,0,-1,0,432)" stroke-width="1.07" stroke-linecap="butt" stroke-linejoin="round" fill="none" stroke="#333333" d="M88.36 296.03V407.93"/>
<path transform="matrix(1,0,0,-1,0,432)" stroke-width="1.07" stroke-linecap="butt" stroke-linejoin="round" fill="none" stroke="#333333" d="M88.36 198.43V101.67"/>
<path transform="matrix(1,0,0,-1,0,432)" d="M78.9 296.03V198.43H97.81V296.03H78.9Z" fill="#e69f00" fill-opacity=".502"/>
<path transform="matrix(1,0,0,-1,0,432)" stroke-width="1.07" stroke-linecap="butt" stroke-miterlimit="10" stroke-linejoin="miter" fill="none" stroke="#333333" d="M78.9 296.03V198.43H97.81V296.03H78.9Z"/>
<path transform="matrix(1,0,0,-1,0,432)" stroke-width="2.13" stroke-linecap="butt" stroke-miterlimit="10" stroke-linejoin="miter" fill="none" stroke="#333333" d="M78.9 248.07H97.81"/>
<path transform="matrix(1,0,0,-1,0,432)" stroke-width="1.07" stroke-linecap="butt" stroke-linejoin="round" fill="none" stroke="#333333" d="M145.08 303.81V405.4"/>
<path transform="matrix(1,0,0,-1,0,432)" stroke-width="1.07" stroke-linecap="butt" stroke-linejoin="round" fill="none" stroke="#333333" d="M145.08 189.81V89.05"/>
<path transform="matrix(1,0,0,-1,0,432)" d="M135.63 303.81V189.81H154.54V303.81H135.63Z" fill="#56b4e9" fill-opacity=".502"/>
<path transform="matrix(1,0,0,-1,0,432)" stroke-width="1.07" stroke-linecap="butt" stroke-miterlimit="10" stroke-linejoin="miter" fill="none" stroke="#333333" d="M135.63 303.81V189.81H154.54V303.81H135.63Z"/>
<path transform="matrix(1,0,0,-1,0,432)" stroke-width="2.13" stroke-linecap="butt" stroke-miterlimit="10" stroke-linejoin="miter" fill="none" stroke="#333333" d="M135.63 240.92H154.54"/>
<path transform="matrix(1,0,0,-1,0,432)" stroke-width="1.07" stroke-linecap="butt" stroke-linejoin="round" fill="none" stroke="#333333" d="M214.41 255.22V375.96"/>
<path transform="matrix(1,0,0,-1,0,432)" stroke-width="1.07" stroke-linecap="butt" stroke-linejoin="round" fill="none" stroke="#333333" d="M214.41 174.45V120.18"/>
<path transform="matrix(1,0,0,-1,0,432)" d="M204.96 255.22V174.45H223.87V255.22H204.96Z" fill="#e69f00" fill-opacity=".502"/>
<path transform="matrix(1,0,0,-1,0,432)" stroke-width="1.07" stroke-linecap="butt" stroke-miterlimit="10" stroke-linejoin="miter" fill="none" stroke="#333333" d="M204.96 255.22V174.45H223.87V255.22H204.96Z"/>
<path transform="matrix(1,0,0,-1,0,432)" stroke-width="2.13" stroke-linecap="butt" stroke-miterlimit="10" stroke-linejoin="miter" fill="none" stroke="#333333" d="M204.96 211.05H223.87"/>
<path transform="matrix(1,0,0,-1,0,432)" stroke-width="1.07" stroke-linecap="butt" stroke-linejoin="round" fill="none" stroke="#333333" d="M271.14 271.21V410.45"/>
<path transform="matrix(1,0,0,-1,0,432)" stroke-width="1.07" stroke-linecap="butt" stroke-linejoin="round" fill="none" stroke="#333333" d="M271.14 170.88V105.04"/>
<path transform="matrix(1,0,0,-1,0,432)" d="M261.68 271.21V170.88H280.59V271.21H261.68Z" fill="#56b4e9" fill-opacity=".502"/>
<path transform="matrix(1,0,0,-1,0,432)" stroke-width="1.07" stroke-linecap="butt" stroke-miterlimit="10" stroke-linejoin="miter" fill="none" stroke="#333333" d="M261.68 271.21V170.88H280.59V271.21H261.68Z"/>
<path transform="matrix(1,0,0,-1,0,432)" stroke-width="2.13" stroke-linecap="butt" stroke-miterlimit="10" stroke-linejoin="miter" fill="none" stroke="#333333" d="M261.68 207.68H280.59"/>
<path transform="matrix(1,0,0,-1,0,432)" stroke-width="1.07" stroke-linecap="butt" stroke-linejoin="round" fill="none" stroke="#333333" d="M340.47 275.83V407.09"/>
<path transform="matrix(1,0,0,-1,0,432)" stroke-width="1.07" stroke-linecap="butt" stroke-linejoin="round" fill="none" stroke="#333333" d="M340.47 184.34V99.15"/>
<path transform="matrix(1,0,0,-1,0,432)" d="M331.01 275.83V184.34H349.92V275.83H331.01Z" fill="#e69f00" fill-opacity=".502"/>
<path transform="matrix(1,0,0,-1,0,432)" stroke-width="1.07" stroke-linecap="butt" stroke-miterlimit="10" stroke-linejoin="miter" fill="none" stroke="#333333" d="M331.01 275.83V184.34H349.92V275.83H331.01Z"/>
<path transform="matrix(1,0,0,-1,0,432)" stroke-width="2.13" stroke-linecap="butt" stroke-miterlimit="10" stroke-linejoin="miter" fill="none" stroke="#333333" d="M331.01 227.46H349.92"/>
<path transform="matrix(1,0,0,-1,0,432)" stroke-width="1.07" stroke-linecap="butt" stroke-linejoin="round" fill="none" stroke="#333333" d="M397.19 276.68V402.88"/>
<path transform="matrix(1,0,0,-1,0,432)" stroke-width="1.07" stroke-linecap="butt" stroke-linejoin="round" fill="none" stroke="#333333" d="M397.19 179.92V103.36"/>
<path transform="matrix(1,0,0,-1,0,432)" d="M387.74 276.68V179.92H406.65V276.68H387.74Z" fill="#56b4e9" fill-opacity=".502"/>
<path transform="matrix(1,0,0,-1,0,432)" stroke-width="1.07" stroke-linecap="butt" stroke-miterlimit="10" stroke-linejoin="miter" fill="none" stroke="#333333" d="M387.74 276.68V179.92H406.65V276.68H387.74Z"/>
<path transform="matrix(1,0,0,-1,0,432)" stroke-width="2.13" stroke-linecap="butt" stroke-miterlimit="10" stroke-linejoin="miter" fill="none" stroke="#333333" d="M387.74 224.51H406.65"/>
<path transform="matrix(1,0,0,-1,0,432)" stroke-width="1.07" stroke-linecap="butt" stroke-linejoin="round" fill="none" stroke="#333333" d="M466.52 269.94V391.1"/>
<path transform="matrix(1,0,0,-1,0,432)" stroke-width="1.07" stroke-linecap="butt" stroke-linejoin="round" fill="none" stroke="#333333" d="M466.52 188.33V99.99"/>
<path transform="matrix(1,0,0,-1,0,432)" d="M457.07 269.94V188.33H475.98V269.94H457.07Z" fill="#e69f00" fill-opacity=".502"/>
<path transform="matrix(1,0,0,-1,0,432)" stroke-width="1.07" stroke-linecap="butt" stroke-miterlimit="10" stroke-linejoin="miter" fill="none" stroke="#333333" d="M457.07 269.94V188.33H475.98V269.94H457.07Z"/>
<path transform="matrix(1,0,0,-1,0,432)" stroke-width="2.13" stroke-linecap="butt" stroke-miterlimit="10" stroke-linejoin="miter" fill="none" stroke="#333333" d="M457.07 223.67H475.98"/>
<path transform="matrix(1,0,0,-1,0,432)" stroke-width="1.07" stroke-linecap="butt" stroke-linejoin="round" fill="none" stroke="#333333" d="M523.25 245.55V350.71"/>
<path transform="matrix(1,0,0,-1,0,432)" stroke-width="1.07" stroke-linecap="butt" stroke-linejoin="round" fill="none" stroke="#333333" d="M523.25 166.46V99.99"/>
<path transform="matrix(1,0,0,-1,0,432)" d="M513.8 245.55V166.46H532.7V245.55H513.8Z" fill="#56b4e9" fill-opacity=".502"/>
<path transform="matrix(1,0,0,-1,0,432)" stroke-width="1.07" stroke-linecap="butt" stroke-miterlimit="10" stroke-linejoin="miter" fill="none" stroke="#333333" d="M513.8 245.55V166.46H532.7V245.55H513.8Z"/>
<path transform="matrix(1,0,0,-1,0,432)" stroke-width="2.13" stroke-linecap="butt" stroke-miterlimit="10" stroke-linejoin="miter" fill="none" stroke="#333333" d="M513.8 203.48H532.7"/>
</g>
<text fill="#4d4d4d" xml:space="preserve" transform="matrix(1 0 -0 1 0 432)" font-size="10" font-family="Helvetica"><tspan y="-122.48" x="19.48 25.04 30.600003">100</tspan></text>
<text fill="#4d4d4d" xml:space="preserve" transform="matrix(1 0 -0 1 0 432)" font-size="10" font-family="Helvetica"><tspan y="-206.62" x="19.48 25.04 30.600003">200</tspan></text>
<text fill="#4d4d4d" xml:space="preserve" transform="matrix(1 0 -0 1 0 432)" font-size="10" font-family="Helvetica"><tspan y="-290.75" x="19.48 25.04 30.600003">300</tspan></text>
<text fill="#4d4d4d" xml:space="preserve" transform="matrix(1 0 -0 1 0 432)" font-size="10" font-family="Helvetica"><tspan y="-374.89" x="19.48 25.04 30.600003">400</tspan></text>
<path transform="matrix(1,0,0,-1,0,432)" stroke-width="1.07" stroke-linecap="butt" stroke-linejoin="round" fill="none" stroke="#333333" d="M38.35 126.07H41.09"/>
<path transform="matrix(1,0,0,-1,0,432)" stroke-width="1.07" stroke-linecap="butt" stroke-linejoin="round" fill="none" stroke="#333333" d="M38.35 210.21H41.09"/>
<path transform="matrix(1,0,0,-1,0,432)" stroke-width="1.07" stroke-linecap="butt" stroke-linejoin="round" fill="none" stroke="#333333" d="M38.35 294.34H41.09"/>
<path transform="matrix(1,0,0,-1,0,432)" stroke-width="1.07" stroke-linecap="butt" stroke-linejoin="round" fill="none" stroke="#333333" d="M38.35 378.48H41.09"/>
<path transform="matrix(1,0,0,-1,0,432)" stroke-width="1.07" stroke-linecap="butt" stroke-linejoin="round" fill="none" stroke="#333333" d="M116.72 70.24V72.98"/>
<path transform="matrix(1,0,0,-1,0,432)" stroke-width="1.07" stroke-linecap="butt" stroke-linejoin="round" fill="none" stroke="#333333" d="M242.78 70.24V72.98"/>
<path transform="matrix(1,0,0,-1,0,432)" stroke-width="1.07" stroke-linecap="butt" stroke-linejoin="round" fill="none" stroke="#333333" d="M368.83 70.24V72.98"/>
<path transform="matrix(1,0,0,-1,0,432)" stroke-width="1.07" stroke-linecap="butt" stroke-linejoin="round" fill="none" stroke="#333333" d="M494.89 70.24V72.98"/>
<text fill="#4d4d4d" xml:space="preserve" transform="matrix(1 0 -0 1 0 432)" font-size="10" font-family="Helvetica"><tspan y="-60.87" x="90.6 96.159999 101.71999 106.71999 111.71999 117.27999 120.60999 126.16999 131.73 137.29">background</tspan></text>
<text fill="#4d4d4d" xml:space="preserve" transform="matrix(1 0 -0 1 0 432)" font-size="10" font-family="Helvetica"><tspan y="-60.87" x="218.07 220.29001 225.85 228.33 233.89 237.47 245.8 251.36 254.14 256.36 261.91999">information</tspan></text>
<text fill="#4d4d4d" xml:space="preserve" transform="matrix(1 0 -0 1 0 432)" font-size="10" font-family="Helvetica"><tspan y="-60.87" x="344.83 349.83 355.38999 360.94999 363.72999 366.95997 372.51997 377.51997 380.29997 382.51997 387.26997">contrastive</tspan></text>
<text fill="#4d4d4d" xml:space="preserve" transform="matrix(1 0 -0 1 0 432)" font-size="10" font-family="Helvetica"><tspan y="-60.87" x="473.34 478.34 483.9 487.22999 490.55998 496.11997 501.11997 503.89997 506.11997 510.86997">corrective</tspan></text>
<text xml:space="preserve" transform="matrix(1 0 -0 1 0 432)" font-size="12" font-family="Helvetica"><tspan y="-47.32" x="275.36 282.332 289.004 295.004 301.676 307.676 311.012 316.904 322.904 329.576">Focus Type</tspan></text>
<text xml:space="preserve" transform="matrix(0 -1 1 0 0 432)" font-size="12" font-family="Helvetica"><tspan y="14.1" x="227.14 235.804 242.476 246.352 253.024 256.36003 259.02403 265.696">Duration</tspan></text>
<path transform="matrix(1,0,0,-1,0,432)" d="M225.39 5.48H386.22V33.72H225.39Z" fill="#ffffff"/>
<text xml:space="preserve" transform="matrix(1 0 -0 1 0 432)" font-size="12" font-family="Helvetica"><tspan y="-15.29" x="230.87 240.206 246.87799 253.54999 260.222 266.89399">Gender</tspan></text>
<path transform="matrix(1,0,0,-1,0,432)" stroke-width="1.07" stroke-linecap="butt" stroke-miterlimit="10" stroke-linejoin="miter" fill="none" stroke="#333333" d="M285.51 12.69V15.28"/>
<path transform="matrix(1,0,0,-1,0,432)" stroke-width="1.07" stroke-linecap="butt" stroke-miterlimit="10" stroke-linejoin="miter" fill="none" stroke="#333333" d="M285.51 23.92V26.51"/>
<path transform="matrix(1,0,0,-1,0,432)" d="M279.03 15.28H291.99V23.92H279.03Z" fill="#e69f00" fill-opacity=".502"/>
<path transform="matrix(1,0,0,-1,0,432)" stroke-width="1.07" stroke-linecap="butt" stroke-miterlimit="10" stroke-linejoin="miter" fill="none" stroke="#333333" d="M279.03 15.28H291.99V23.92H279.03Z"/>
<path transform="matrix(1,0,0,-1,0,432)" stroke-width="1.07" stroke-linecap="butt" stroke-miterlimit="10" stroke-linejoin="miter" fill="none" stroke="#333333" d="M279.03 19.6H291.99"/>
<path transform="matrix(1,0,0,-1,0,432)" stroke-width="1.07" stroke-linecap="butt" stroke-miterlimit="10" stroke-linejoin="miter" fill="none" stroke="#333333" d="M344.45 12.69V15.28"/>
<path transform="matrix(1,0,0,-1,0,432)" stroke-width="1.07" stroke-linecap="butt" stroke-miterlimit="10" stroke-linejoin="miter" fill="none" stroke="#333333" d="M344.45 23.92V26.51"/>
<path transform="matrix(1,0,0,-1,0,432)" d="M337.97 15.28H350.93V23.92H337.97Z" fill="#56b4e9" fill-opacity=".502"/>
<path transform="matrix(1,0,0,-1,0,432)" stroke-width="1.07" stroke-linecap="butt" stroke-miterlimit="10" stroke-linejoin="miter" fill="none" stroke="#333333" d="M337.97 15.28H350.93V23.92H337.97Z"/>
<path transform="matrix(1,0,0,-1,0,432)" stroke-width="1.07" stroke-linecap="butt" stroke-miterlimit="10" stroke-linejoin="miter" fill="none" stroke="#333333" d="M337.97 19.6H350.93"/>
<text xml:space="preserve" transform="matrix(1 0 -0 1 0 432)" font-size="10" font-family="Helvetica"><tspan y="-16.01" x="300.12 302.6 308.16 316.49 322.05 324.27">female</tspan></text>
<text xml:space="preserve" transform="matrix(1 0 -0 1 0 432)" font-size="10" font-family="Helvetica"><tspan y="-16.01" x="359.07 367.4 372.96 375.18">male</tspan></text>
</svg>
