<svg xmlns="http://www.w3.org/2000/svg" xmlns:xlink="http://www.w3.org/1999/xlink" version="1.1" width="288pt" height="432pt" viewBox="0 0 288 432">
<defs>
<clipPath id="clip_0">
<path transform="matrix(1,0,0,-1,0,432)" d="M0 0H288V432H0Z"/>
</clipPath>
<clipPath id="clip_1">
<path transform="matrix(1,0,0,-1,0,432)" d="M41.09 33.79H282.52V426.52003H41.09Z"/>
</clipPath>
</defs>
<path transform="matrix(1,0,0,-1,0,432)" d="M0 0H288V432H0Z" fill="#ffffff"/>
<g clip-path="url(#clip_0)">
<path transform="matrix(1,0,0,-1,0,432)" d="M0 0H288V432H0Z" fill="#ffffff"/>
</g>
<g clip-path="url(#clip_1)">
<path transform="matrix(1,0,0,-1,0,432)" stroke-width="1.07" stroke-linecap="butt" stroke-linejoin="round" fill="none" stroke="#d8d8d8" d="M41.09 92.76H282.52"/>
<path transform="matrix(1,0,0,-1,0,432)" stroke-width="1.07" stroke-linecap="butt" stroke-linejoin="round" fill="none" stroke="#d8d8d8" d="M41.09 186.23H282.52"/>
<path transform="matrix(1,0,0,-1,0,432)" stroke-width="1.07" stroke-linecap="butt" stroke-linejoin="round" fill="none" stroke="#d8d8d8" d="M41.09 279.69H282.52"/>
<path transform="matrix(1,0,0,-1,0,432)" stroke-width="1.07" stroke-linecap="butt" stroke-linejoin="round" fill="none" stroke="#d8d8d8" d="M41.09 373.15H282.52"/>
<path transform="matrix(1,0,0,-1,0,432)" stroke-width="1.07" stroke-linecap="butt" stroke-linejoin="round" fill="none" stroke="#333333" d="M106.93 266.6V408.67"/>
<path transform="matrix(1,0,0,-1,0,432)" stroke-width="1.07" stroke-linecap="butt" stroke-linejoin="round" fill="none" stroke="#333333" d="M106.93 160.06V63.79"/>
<path transform="matrix(1,0,0,-1,0,432)" d="M90.47 266.6V160.06H123.39V266.6H90.47Z" fill="#e69f00" fill-opacity=".502"/>
<path transform="matrix(1,0,0,-1,0,432)" stroke-width="1.07" stroke-linecap="butt" stroke-miterlimit="10" stroke-linejoin="miter" fill="none" stroke="#333333" d="M90.47 266.6V160.06H123.39V266.6H90.47Z"/>
<path transform="matrix(1,0,0,-1,0,432)" stroke-width="2.13" stroke-linecap="butt" stroke-miterlimit="10" stroke-linejoin="miter" fill="none" stroke="#333333" d="M90.47 210.53H123.39"/>
<path transform="matrix(1,0,0,-1,0,432)" stroke-width="1.07" stroke-linecap="butt" stroke-linejoin="round" fill="none" stroke="#333333" d="M216.67 249.78V405.87"/>
<path transform="matrix(1,0,0,-1,0,432)" stroke-width="1.07" stroke-linecap="butt" stroke-linejoin="round" fill="none" stroke="#333333" d="M216.67 145.1V51.64"/>
<path transform="matrix(1,0,0,-1,0,432)" d="M200.21 249.78V145.1H233.14V249.78H200.21Z" fill="#56b4e9" fill-opacity=".502"/>
<path transform="matrix(1,0,0,-1,0,432)" stroke-width="1.07" stroke-linecap="butt" stroke-miterlimit="10" stroke-linejoin="miter" fill="none" stroke="#333333" d="M200.21 249.78V145.1H233.14V249.78H200.21Z"/>
<path transform="matrix(1,0,0,-1,0,432)" stroke-width="2.13" stroke-linecap="butt" stroke-miterlimit="10" stroke-linejoin="miter" fill="none" stroke="#333333" d="M200.21 192.77H233.14"/>
</g>
<text fill="#4d4d4d" xml:space="preserve" transform="matrix(1 0 -0 1 0 432)" font-size="10" font-family="Helvetica"><tspan y="-89.17" x="19.48 25.04 30.600003">100</tspan></text>
<text fill="#4d4d4d" xml:space="preserve" transform="matrix(1 0 -0 1 0 432)" font-size="10" font-family="Helvetica"><tspan y="-182.64" x="19.48 25.04 30.600003">200</tspan></text>
<text fill="#4d4d4d" xml:space="preserve" transform="matrix(1 0 -0 1 0 432)" font-size="10" font-family="Helvetica"><tspan y="-276.1" x="19.48 25.04 30.600003">300</tspan></text>
<text fill="#4d4d4d" xml:space="preserve" transform="matrix(1 0 -0 1 0 432)" font-size="10" font-family="Helvetica"><tspan y="-369.56" x="19.48 25.04 30.600003">400</tspan></text>
<path transform="matrix(1,0,0,-1,0,432)" stroke-width="1.07" stroke-linecap="butt" stroke-linejoin="round" fill="none" stroke="#333333" d="M38.35 92.76H41.09"/>
<path transform="matrix(1,0,0,-1,0,432)" stroke-width="1.07" stroke-linecap="butt" stroke-linejoin="round" fill="none" stroke="#333333" d="M38.35 186.23H41.09"/>
<path transform="matrix(1,0,0,-1,0,432)" stroke-width="1.07" stroke-linecap="butt" stroke-linejoin="round" fill="none" stroke="#333333" d="M38.35 279.69H41.09"/>
<path transform="matrix(1,0,0,-1,0,432)" stroke-width="1.07" stroke-linecap="butt" stroke-linejoin="round" fill="none" stroke="#333333" d="M38.35 373.15H41.09"/>
<path transform="matrix(1,0,0,-1,0,432)" stroke-width="1.07" stroke-linecap="butt" stroke-linejoin="round" fill="none" stroke="#333333" d="M106.93 31.05V33.79"/>
<path transform="matrix(1,0,0,-1,0,432)" stroke-width="1.07" stroke-linecap="butt" stroke-linejoin="round" fill="none" stroke="#333333" d="M216.67 31.05V33.79"/>
<text fill="#4d4d4d" xml:space="preserve" transform="matrix(1 0 -0 1 0 432)" font-size="10" font-family="Helvetica"><tspan y="-21.68" x="103.6">A</tspan></text>
<text fill="#4d4d4d" xml:space="preserve" transform="matrix(1 0 -0 1 0 432)" font-size="10" font-family="Helvetica"><tspan y="-21.68" x="213.06">N</tspan></text>
<text xml:space="preserve" transform="matrix(1 0 -0 1 0 432)" font-size="12" font-family="Helvetica"><tspan y="-8.12" x="147.65 158.618 165.29 169.286">Word</tspan></text>
<text xml:space="preserve" transform="matrix(0 -1 1 0 0 432)" font-size="12" font-family="Helvetica"><tspan y="14.1" x="193.88 202.544 209.216 213.09201 219.764 223.1 225.764 232.436 239.108 242.444 246.44 256.436 262.436">Duration (ms)</tspan></text>
</svg>
